<svg xmlns="http://www.w3.org/2000/svg" version="1.1" xmlns:xlink="http://www.w3.org/1999/xlink" xmlns:svgjs="http://svgjs.dev/svgjs" width="1440" height="560" preserveAspectRatio="none" viewBox="0 0 1440 560"><g mask="url(&quot;#SvgjsMask1007&quot;)" fill="none"><rect width="1440" height="560" x="0" y="0" fill="#0e2a47"></rect><path d="M68.292,153.163C98.748,151.619,128.07,138.005,142.629,111.21C156.619,85.461,151.038,54.334,135.483,29.499C120.939,6.278,95.592,-5.144,68.292,-7.478C34.994,-10.324,-3.119,-11.383,-22.252,16.017C-43.417,46.327,-40.728,88.624,-20.36,119.475C-1.693,147.751,34.453,154.879,68.292,153.163" fill="rgba(28, 83, 142, 0.4)"className="triangle-float3"></path><path d="M111.303,223.135C158.202,223.785,213.533,224.482,236.489,183.579C259.215,143.086,229.477,96.615,204.15,57.697C181.897,23.502,151.956,-5.348,111.303,-8.784C63.725,-12.805,12.1,-1.063,-13.391,39.311C-40.281,81.9,-36.286,138.506,-8.011,180.189C17.421,217.681,66.003,222.507,111.303,223.135" fill="rgba(28, 83, 142, 0.4)"className="triangle-float2"></path><path d="M62.048,152.927C94.052,152.389,122.77,134.064,138.475,106.173C153.884,78.808,153.474,45.527,137.87,18.273C122.165,-9.157,93.652,-26.794,62.048,-27.317C29.509,-27.856,-1.61,-12.279,-18.251,15.687C-35.266,44.281,-35.762,80.1,-18.959,108.818C-2.317,137.26,29.1,153.48,62.048,152.927" fill="rgba(28, 83, 142, 0.4)"className="triangle-float3"></path><path d="M1391.553,155.561C1422.132,154.337,1443.029,128.608,1458.618,102.273C1474.615,75.249,1488.492,43.794,1474.295,15.782C1459.018,-14.362,1425.268,-32.371,1391.553,-30.056C1360.933,-27.954,1341.354,-0.866,1326.399,25.936C1311.957,51.819,1301.189,81.558,1314.5,108.04C1329.025,136.938,1359.236,156.854,1391.553,155.561" fill="rgba(28, 83, 142, 0.4)"className="triangle-float3"></path><path d="M1258.79 -5.46 a63.75 63.75 0 1 0 127.5 0 a63.75 63.75 0 1 0 -127.5 0z" fill="rgba(28, 83, 142, 0.4)"className="triangle-float2"></path><path d="M1503.6265246504138 0.2172354370442804L1345.7581643583812-57.24214864166806 1446.1671405717013 158.08559572907689z" fill="rgba(28, 83, 142, 0.4)"className="triangle-float1"></path><path d="M173.60686099587608 563.9236887125526L121.6920059408849 404.14619397496676 13.829366258290293 615.8385437675438z" fill="rgba(28, 83, 142, 0.4)"className="triangle-float1"></path><path d="M68.98948942293944 596.4250197492132L138.03342821086162 417.07049477769-28.331607337722176 440.4515757389811z" fill="rgba(28, 83, 142, 0.4)"className="triangle-float2"></path><path d="M-114.69 488.02 a154.71 154.71 0 1 0 309.42 0 a154.71 154.71 0 1 0 -309.42 0z" fill="rgba(28, 83, 142, 0.4)"className="triangle-float1"></path><path d="M1237.59 463.74 a106.15 106.15 0 1 0 212.3 0 a106.15 106.15 0 1 0 -212.3 0z" fill="rgba(28, 83, 142, 0.4)"className="triangle-float2"></path><path d="M1322.3867434753824 583.4272970037417L1430.0480534204742 614.2986808552457 1422.5244742251843 437.3710240118562z" fill="rgba(28, 83, 142, 0.4)"className="triangle-float1"></path><path d="M1399.2,624.84C1435.927,624.847,1468.554,601.612,1485.542,569.05C1501.353,538.744,1497.11,502.053,1478.07,473.664C1461.029,448.255,1429.794,440.335,1399.2,440.31C1368.551,440.285,1337.173,448.077,1320.106,473.535C1301.057,501.949,1297.069,538.7,1312.916,569.016C1329.925,601.555,1362.484,624.833,1399.2,624.84" fill="rgba(28, 83, 142, 0.4)"className="triangle-float1"></path></g><defs><mask id="SvgjsMask1007"><rect width="1440" height="560" fill="#ffffff"></rect></mask><style>
                @keyframes float1 {
                    0%{transform: translate(0, 0)}
                    50%{transform: translate(-10px, 0)}
                    100%{transform: translate(0, 0)}
                }

                .triangle-float1 {
                    animation: float1 5s infinite;
                }

                @keyframes float2 {
                    0%{transform: translate(0, 0)}
                    50%{transform: translate(-5px, -5px)}
                    100%{transform: translate(0, 0)}
                }

                .triangle-float2 {
                    animation: float2 4s infinite;
                }

                @keyframes float3 {
                    0%{transform: translate(0, 0)}
                    50%{transform: translate(0, -10px)}
                    100%{transform: translate(0, 0)}
                }

                .triangle-float3 {
                    animation: float3 6s infinite;
                }
            </style></defs></svg>