<svg xmlns="http://www.w3.org/2000/svg" version="1.1" xmlns:xlink="http://www.w3.org/1999/xlink" xmlns:svgjs="http://svgjs.dev/svgjs" width="1440" height="560" preserveAspectRatio="none" viewBox="0 0 1440 560"><g mask="url(&quot;#SvgjsMask1002&quot;)" fill="none"><rect width="1440" height="560" x="0" y="0" fill="#0e2a47"></rect><path d="M688.29 128.32L709.19 128.32L709.19 146.48L688.29 146.48z" fill="#e73635"></path><path d="M615.15 133.8 a2.8 2.8 0 1 0 5.6 0 a2.8 2.8 0 1 0 -5.6 0z" stroke="#e73635"></path><path d="M407.96 41.49L455.12 41.49L455.12 88.65L407.96 88.65z" fill="#d3b714"></path><path d="M752.21 197.99a40.91 40.91 0 1 0-80.59-14.12z" fill="rgba(123, 3, 3, 1)"></path><path d="M338.34 503.86L355.09 503.86L355.09 520.61L338.34 520.61z" fill="rgba(123, 3, 3, 1)"></path><path d="M1082.75 253.36L1127.53 253.36L1127.53 298.14L1082.75 298.14z" stroke="#d3b714"></path><path d="M592.04 227.34a5.11 5.11 0 1 0 1.27-10.14z" stroke="rgba(123, 3, 3, 1)"></path><path d="M396.85 432.26L415.83 432.26L415.83 461.18L396.85 461.18z" fill="#d3b714"></path><path d="M335.32 80.64L368.68 80.64L368.68 114L335.32 114z" fill="#e73635"></path><path d="M115.35 415.61a55.46 55.46 0 1 0-108.18 24.48z" fill="#d3b714"></path><path d="M1023.55 88.76 a36.71 36.71 0 1 0 73.42 0 a36.71 36.71 0 1 0 -73.42 0z" fill="rgba(123, 3, 3, 1)"></path><path d="M1114.66 369.76a20.07 20.07 0 1 0-14.15-37.56z" fill="#d3b714"></path><path d="M611.18 529.96a36.45 36.45 0 1 0-63.02 36.65z" stroke="#d3b714"></path><path d="M1067.42 65.49a7.35 7.35 0 1 0 6.11-13.37z" fill="rgba(123, 3, 3, 1)"></path><path d="M87.56 179.3L112.82 179.3L112.82 210.22L87.56 210.22z" stroke="rgba(123, 3, 3, 1)"></path><path d="M352.99 40.41L374.17 40.41L374.17 84.1L352.99 84.1z" stroke="rgba(123, 3, 3, 1)"></path><path d="M473.21 384.96L526.98 384.96L526.98 410.26L473.21 410.26z" fill="#d3b714"></path><path d="M69.86 444.53a21.52 21.52 0 1 0 27.96 32.72z" fill="rgba(123, 3, 3, 1)"></path><path d="M1085.85 109.45 a4.01 4.01 0 1 0 8.02 0 a4.01 4.01 0 1 0 -8.02 0z" stroke="rgba(123, 3, 3, 1)"></path><path d="M355.01 179.24L402.14 179.24L402.14 226.37L355.01 226.37z" fill="#d3b714"></path><path d="M182.9 417.78a45.66 45.66 0 1 0-12.89 90.41z" fill="#d3b714"></path><path d="M1296.27 194.12a35.07 35.07 0 1 0-28.6 64.04z" fill="rgba(123, 3, 3, 1)"></path><path d="M720.62 223.17a5.88 5.88 0 1 0 10.46-5.37z" stroke="#d3b714"></path><path d="M118.15 556.39 a48.55 48.55 0 1 0 97.1 0 a48.55 48.55 0 1 0 -97.1 0z" stroke="#d3b714"></path><path d="M790.87 357.39a36.92 36.92 0 1 0 72 16.36z" fill="#e73635"></path><path d="M921.2 415.79L941.22 415.79L941.22 435.81L921.2 435.81z" fill="rgba(123, 3, 3, 1)"></path><path d="M16.93 433.82 a0.1 0.1 0 1 0 0.2 0 a0.1 0.1 0 1 0 -0.2 0z" fill="rgba(123, 3, 3, 1)"></path><path d="M593.65 282.09a25.96 25.96 0 1 0-6.22 51.54z" stroke="#d3b714"></path><path d="M243.47 316.92a6.44 6.44 0 1 0 3.04 12.52z" stroke="#e73635"></path><path d="M544.97 465.88 a15.34 15.34 0 1 0 30.68 0 a15.34 15.34 0 1 0 -30.68 0z" stroke="#e73635"></path><path d="M1274.46 415.25a16.56 16.56 0 1 0-4.72-32.78z" stroke="#e73635"></path><path d="M523.07 165.56L542.28 165.56L542.28 195.65L523.07 195.65z" fill="#d3b714"></path><path d="M368.8 109.99 a19.24 19.24 0 1 0 38.48 0 a19.24 19.24 0 1 0 -38.48 0z" fill="#e73635"></path></g><defs><mask id="SvgjsMask1002"><rect width="1440" height="560" fill="#ffffff"></rect></mask></defs></svg>